<svg xmlns="http://www.w3.org/2000/svg" xmlns:xlink="http://www.w3.org/1999/xlink" id="Layer_1" version="1.1" viewBox="0 0 304 297">
  <!-- Generator: Adobe Illustrator 29.1.0, SVG Export Plug-In . SVG Version: 2.1.0 Build 142)  -->
  <defs fill="#f8f9fa">
    <style>
      .st0 {
        fill: none;
      }

      .st1 {
        clip-path: url(#clippath-1);
      }

      .st2 {
        clip-path: url(#clippath-2);
      }

      .st3 {
        fill: #f8f9fa;
      }

      .st4 {
        clip-path: url(#clippath);
      }
    </style>
    <clipPath id="clippath" fill="#f8f9fa">
      <rect class="st0" x=".2" y="39" width="266.5" height="257.7" fill="#f8f9fa"/>
    </clipPath>
    <clipPath id="clippath-1" fill="#f8f9fa">
      <rect class="st0" x="161.8" width="119.2" height="30.7" fill="#f8f9fa"/>
    </clipPath>
    <clipPath id="clippath-2" fill="#f8f9fa">
      <rect class="st0" x="273" width="30.7" height="134.6" fill="#f8f9fa"/>
    </clipPath>
  </defs>
  <g class="st4">
    <path class="st3" d="M266.2,183.8h-94.9l64.1,64.1-21.2,21.2-65.4-65.4v92.8h-29.9v-91.7l-68.1,68.1-22.6-22.6,66.6-66.6H.7v-32h96.3L32.2,87l21.2-21.2,65.6,65.6V39.1h29.9l-.2,111.6c39.2.4,78.3.8,117.5,1.2v32Z" fill="#f8f9fa"/>
  </g>
  <g class="st1">
    <path class="st3" d="M161.8,0h119.2v30.7h-119.2V0Z" fill="#f8f9fa"/>
  </g>
  <g class="st2">
    <path class="st3" d="M273,134.6V0h30.7v134.7h-30.7Z" fill="#f8f9fa"/>
  </g>
  <path class="st0" d="M226.4,107.3v-949.8H78.6V145.3" fill="#f8f9fa"/>
  <path class="st0" d="M226.4,115.8v-7.4" fill="#f8f9fa"/>
</svg>