<svg xmlns="http://www.w3.org/2000/svg" xmlns:xlink="http://www.w3.org/1999/xlink" width="446" zoomAndPan="magnify" viewBox="0 0 334.5 349.500003" height="466" preserveAspectRatio="xMidYMid meet" version="1.0"><defs><g/><clipPath id="5bfeff949a"><path d="M 0 0.0117188 L 334 0.0117188 L 334 348.988281 L 0 348.988281 Z M 0 0.0117188 " clip-rule="nonzero"/></clipPath><clipPath id="6752212c1b"><path d="M 0 11.246094 L 0 337.417969 C 0 343.621094 5.027344 348.652344 11.234375 348.652344 L 322.589844 348.652344 C 328.792969 348.652344 333.824219 343.621094 333.824219 337.417969 L 333.824219 11.246094 C 333.824219 5.039062 328.792969 0.0117188 322.589844 0.0117188 L 11.234375 0.0117188 C 5.027344 0.0117188 0 5.039062 0 11.246094 Z M 0 11.246094 " clip-rule="nonzero"/></clipPath></defs><g clip-path="url(#5bfeff949a)"><g clip-path="url(#6752212c1b)"><path fill="#18181a" d="M 0.046875 0.0117188 L 107.765625 0.0117188 L 107.765625 122.019531 L 333.769531 122.019531 L 333.769531 348.648438 L 225.558594 348.648438 L 225.558594 207.65625 L 0.046875 207.65625 Z M 107.765625 271.335938 L 0.046875 207.945312 L 0.046875 348.648438 L 107.765625 348.648438 Z M 225.542969 58.320312 L 333.75 122 L 333.75 0.0117188 L 225.542969 0.0117188 Z M 225.542969 58.320312 " fill-opacity="1" fill-rule="evenodd"/></g></g><g fill="#18181a" fill-opacity="1"><g transform="translate(15.120064, 201.205593)"><g><path d="M 2.09375 0.046875 C 1.800781 0.046875 1.566406 -0.03125 1.390625 -0.1875 C 1.222656 -0.351562 1.132812 -0.570312 1.125 -0.84375 C 1.125 -1.113281 1.207031 -1.335938 1.375 -1.515625 C 1.539062 -1.703125 1.769531 -1.796875 2.0625 -1.796875 C 2.363281 -1.804688 2.601562 -1.726562 2.78125 -1.5625 C 2.957031 -1.394531 3.046875 -1.171875 3.046875 -0.890625 C 3.054688 -0.617188 2.972656 -0.394531 2.796875 -0.21875 C 2.628906 -0.0507812 2.394531 0.0351562 2.09375 0.046875 Z M 2.09375 0.046875 "/></g></g></g></svg>