<svg xmlns="http://www.w3.org/2000/svg" version="1.1" xmlns:xlink="http://www.w3.org/1999/xlink" width="1000" height="1000"><style>
    #light-icon {
      display: inline;
    }
    #dark-icon {
      display: none;
    }

    @media (prefers-color-scheme: dark) {
      #light-icon {
        display: none;
      }
      #dark-icon {
        display: inline;
      }
    }
  </style><g id="light-icon"><svg xmlns="http://www.w3.org/2000/svg" version="1.1" xmlns:xlink="http://www.w3.org/1999/xlink" width="1000" height="1000"><g><g transform="matrix(2.1459227467811157,0,0,2.1459227467811157,21.459227467811218,5.684341886080802e-14)"><svg xmlns="http://www.w3.org/2000/svg" version="1.1" xmlns:xlink="http://www.w3.org/1999/xlink" width="446" height="466"><svg xmlns="http://www.w3.org/2000/svg" xmlns:xlink="http://www.w3.org/1999/xlink" width="446" zoomAndPan="magnify" viewBox="0 0 334.5 349.500003" height="466" preserveAspectRatio="xMidYMid meet" version="1.0"><defs><g></g><clipPath id="5bfeff949a"><path d="M 0 0.0117188 L 334 0.0117188 L 334 348.988281 L 0 348.988281 Z M 0 0.0117188 " clip-rule="nonzero"></path></clipPath><clipPath id="6752212c1b"><path d="M 0 11.246094 L 0 337.417969 C 0 343.621094 5.027344 348.652344 11.234375 348.652344 L 322.589844 348.652344 C 328.792969 348.652344 333.824219 343.621094 333.824219 337.417969 L 333.824219 11.246094 C 333.824219 5.039062 328.792969 0.0117188 322.589844 0.0117188 L 11.234375 0.0117188 C 5.027344 0.0117188 0 5.039062 0 11.246094 Z M 0 11.246094 " clip-rule="nonzero"></path></clipPath></defs><g clip-path="url(#5bfeff949a)"><g clip-path="url(#6752212c1b)"><path fill="#18181a" d="M 0.046875 0.0117188 L 107.765625 0.0117188 L 107.765625 122.019531 L 333.769531 122.019531 L 333.769531 348.648438 L 225.558594 348.648438 L 225.558594 207.65625 L 0.046875 207.65625 Z M 107.765625 271.335938 L 0.046875 207.945312 L 0.046875 348.648438 L 107.765625 348.648438 Z M 225.542969 58.320312 L 333.75 122 L 333.75 0.0117188 L 225.542969 0.0117188 Z M 225.542969 58.320312 " fill-opacity="1" fill-rule="evenodd"></path></g></g><g fill="#18181a" fill-opacity="1"><g transform="translate(15.120064, 201.205593)"><g><path d="M 2.09375 0.046875 C 1.800781 0.046875 1.566406 -0.03125 1.390625 -0.1875 C 1.222656 -0.351562 1.132812 -0.570312 1.125 -0.84375 C 1.125 -1.113281 1.207031 -1.335938 1.375 -1.515625 C 1.539062 -1.703125 1.769531 -1.796875 2.0625 -1.796875 C 2.363281 -1.804688 2.601562 -1.726562 2.78125 -1.5625 C 2.957031 -1.394531 3.046875 -1.171875 3.046875 -0.890625 C 3.054688 -0.617188 2.972656 -0.394531 2.796875 -0.21875 C 2.628906 -0.0507812 2.394531 0.0351562 2.09375 0.046875 Z M 2.09375 0.046875 "></path></g></g></g></svg></svg></g></g></svg></g><g id="dark-icon"><svg xmlns="http://www.w3.org/2000/svg" version="1.1" xmlns:xlink="http://www.w3.org/1999/xlink" width="1000" height="1000"><g><g transform="matrix(2.1459227467811157,0,0,2.1459227467811157,21.459227467811218,5.684341886080802e-14)"><svg xmlns="http://www.w3.org/2000/svg" version="1.1" xmlns:xlink="http://www.w3.org/1999/xlink" width="446" height="466"><svg xmlns="http://www.w3.org/2000/svg" xmlns:xlink="http://www.w3.org/1999/xlink" width="446" zoomAndPan="magnify" viewBox="0 0 334.5 349.500003" height="466" preserveAspectRatio="xMidYMid meet" version="1.0"><defs><g></g><clipPath id="013ac49fe0"><path d="M 0 0.0117188 L 334 0.0117188 L 334 348.988281 L 0 348.988281 Z M 0 0.0117188 " clip-rule="nonzero"></path></clipPath><clipPath id="770394119e"><path d="M 0 11.246094 L 0 337.417969 C 0 343.621094 5.027344 348.652344 11.234375 348.652344 L 322.589844 348.652344 C 328.792969 348.652344 333.824219 343.621094 333.824219 337.417969 L 333.824219 11.246094 C 333.824219 5.039062 328.792969 0.0117188 322.589844 0.0117188 L 11.234375 0.0117188 C 5.027344 0.0117188 0 5.039062 0 11.246094 Z M 0 11.246094 " clip-rule="nonzero"></path></clipPath></defs><g clip-path="url(#013ac49fe0)"><g clip-path="url(#770394119e)"><path fill="#ffffff" d="M 0.046875 0.0117188 L 107.765625 0.0117188 L 107.765625 122.019531 L 333.769531 122.019531 L 333.769531 348.648438 L 225.558594 348.648438 L 225.558594 207.65625 L 0.046875 207.65625 Z M 107.765625 271.335938 L 0.046875 207.945312 L 0.046875 348.648438 L 107.765625 348.648438 Z M 225.542969 58.320312 L 333.75 122 L 333.75 0.0117188 L 225.542969 0.0117188 Z M 225.542969 58.320312 " fill-opacity="1" fill-rule="evenodd"></path></g></g><g fill="#ffffff" fill-opacity="1"><g transform="translate(164.805619, 179.948264)"><g><path d="M 2.09375 0.078125 C 1.800781 0.078125 1.566406 -0.00390625 1.390625 -0.171875 C 1.222656 -0.335938 1.140625 -0.554688 1.140625 -0.828125 C 1.140625 -1.097656 1.222656 -1.320312 1.390625 -1.5 C 1.566406 -1.675781 1.800781 -1.765625 2.09375 -1.765625 C 2.394531 -1.765625 2.628906 -1.679688 2.796875 -1.515625 C 2.972656 -1.347656 3.0625 -1.125 3.0625 -0.84375 C 3.0625 -0.570312 2.972656 -0.347656 2.796875 -0.171875 C 2.628906 -0.00390625 2.394531 0.078125 2.09375 0.078125 Z M 2.09375 0.078125 "></path></g></g></g></svg></svg></g></g></svg></g></svg>